<svg xmlns="http://www.w3.org/2000/svg" viewBox="0 0 447.33 142.37"><defs><style>.cls-1{fill:#161f32}.cls-2{fill:#4fe5e2}</style></defs><g id="Layer_2" data-name="Layer 2"><g id="Layer_1-2" data-name="Layer 1"><path class="cls-1" d="M106.06 38.7h14.37v81.33h-14.37zM188.28 92.16c0-8.36-2.67-15.25-8-20.94s-12-8.44-20.16-8.44c-8.6 0-15.7 2.78-21.18 8.44a28.92 28.92 0 00-8.23 20.94q0 12.7 8.36 21.06c5.56 5.58 12.9 8.36 22.18 8.36 10.67 0 18.79-4 24.27-11.9L173.91 103c-2.77 3.69-7 5.61-12.47 5.61-8.6 0-13.79-3.46-15.71-10.52h42a36.3 36.3 0 00.55-5.93zM145.5 87c1.7-7.13 6.89-11.25 14.6-11.25 6.55 0 12.14 3.67 13.81 11.25zM240.21 64.32v6.56c-4.38-5.43-10.35-8.1-18.17-8.1a25.32 25.32 0 00-19.16 8.57A29.48 29.48 0 00195 92.16a29.81 29.81 0 007.92 21 25.22 25.22 0 0019.08 8.42c7.82 0 13.79-2.68 18.17-8.15V120h14.37V64.32zm-4.48 39.22a16.15 16.15 0 01-22 0 15.8 15.8 0 01-4.35-11.38 15.31 15.31 0 014.35-11.24 15.86 15.86 0 0122 0 14.91 14.91 0 014.48 11.24 15.38 15.38 0 01-4.48 11.38zM298.58 62.76c-7.57 0-13.15 2.57-16.6 7.8v-6.24h-14.37V120H282V90c0-9.25 4.79-13.82 12.26-13.82 6.68 0 11 4 11 11.48V120h14.37V85.82c0-7.24-2-12.81-6-16.93s-8.92-6.13-15.05-6.13zM331.89 64.32h14.37v55.7h-14.37zM432 64.32l-12.36 37.44-14.53-37.44h-27.54v-.55c0-6.91 3.9-10 11.81-9.47V40.48c-17.38-1-26.18 7.58-26.18 23.29v.55h-8v13.82h8V120h14.37V78.14h17.68l17 40.11c-2.68 7.57-6.91 10.8-14.6 10.69v13.37c14.26.78 23.62-6.24 29.41-22.28l20.28-55.71z"/><path class="cls-2" d="M96.54 120.13a37.42 37.42 0 00-18.88-4.06 19.68 19.68 0 01-2.23.13c-7 .52-14 2.46-21.26 4.43l-1.36.39c-8.41 2.31-17 4.54-26 4.54a46.47 46.47 0 01-8-.66c-9.65-1.57-16.1-7.08-18.11-15.44-3.86-16 8.93-37.12 23-47.55a66.72 66.72 0 0124-11.41l.29-.08c20.14-4.29 30.83 3.91 31.85 4.75l.08.08c.37.31.71.65 1 1l.08.08c5.37 5.8-3.41 9.68-3.41 9.68S69.17 53.7 57 59.63a1.32 1.32 0 00-.42.23 4.65 4.65 0 00-.73.42l-.27.16a13.35 13.35 0 00-2.25 1.76c-5.11 4.8-8.75 14.49-5.42 25.32 3.85 12.42 17.67 19.32 26.92 19.42a50 50 0 0112.43.5 7.17 7.17 0 01.83.15c.29 0 .56.11.82.16 8.75 2.1 8.62 10.25 7.63 12.38zM120.47 8.69L91.16 43.14a4.79 4.79 0 01-.65 4.77l-1.55 2a.92.92 0 01-1.31.16l-10.09-7.9a.93.93 0 01-.19-1.31l1.55-2a4.83 4.83 0 015-1.7l27.32-35.89a3.22 3.22 0 014.59-.55L120 4.08a3.23 3.23 0 01.47 4.61z"/><path class="cls-1" d="M120.47 8.69L91.16 43.14a4.79 4.79 0 01-.65 4.77l-1.55 2a.92.92 0 01-1.31.16l-10.09-7.9a.93.93 0 01-.19-1.31l1.55-2a4.83 4.83 0 015-1.7l27.32-35.89a3.22 3.22 0 014.59-.55L120 4.08a3.23 3.23 0 01.47 4.61zM88.91 107.73c-.26 0-.53-.13-.82-.16s-.55-.1-.83-.16a50 50 0 00-12.43-.5c-9.25-.1-23.07-7-26.92-19.42-3.33-10.83.31-20.53 5.45-25.33a13.34 13.34 0 012.25-1.75c.08-.06.19-.11.27-.16a4.65 4.65 0 01.73-.42 1.35 1.35 0 01.42-.24C69.17 53.7 77.66 66 77.66 66s8.78-3.88 3.41-9.67l-.07-.09-1-1-.08-.08c-1-.84-11.71-9.05-31.85-4.75l-.29.08a66.69 66.69 0 00-24 11.4C9.63 72.34-3.16 93.49.7 109.46c2 8.36 8.46 13.87 18.11 15.44a46.45 46.45 0 008 .65c8.94 0 17.57-2.22 26-4.53l1.36-.39c7.24-2 14.29-3.91 21.26-4.43a19.62 19.62 0 002.23-.14 37.43 37.43 0 0118.88 4.07c.99-2.13 1.12-10.28-7.63-12.4zm-68.58 8.07c-6-1-9.52-3.77-10.64-8.52-1.45-5.84.73-13.92 5.13-21.55a40.45 40.45 0 003 17.31c2.17 5.37 6.87 9.9 12.37 13.16a41.54 41.54 0 01-9.86-.4zm31.41-4.06c-.42.1-.84.23-1.29.34-6.13 1.6-20.68-4.12-24.14-12.53-3.25-8-6.09-23.17 11.61-35.63 1.31-.68 2.6-1.26 3.88-1.81a35.6 35.6 0 00-2.7 28.13c2.8 9.13 9.46 16 17 20.32-1.46.37-2.92.79-4.36 1.18z"/></g></g></svg>